<?xml version="1.0" encoding="UTF-8" standalone="no"?>
<!-- Created with Inkscape (http://www.inkscape.org/) -->

<svg
   width="124.23196mm"
   height="79.411064mm"
   viewBox="0 0 124.23196 79.411064"
   version="1.1"
   id="svg1"
   xml:space="preserve"
   xmlns:inkscape="http://www.inkscape.org/namespaces/inkscape"
   xmlns:sodipodi="http://sodipodi.sourceforge.net/DTD/sodipodi-0.dtd"
   xmlns="http://www.w3.org/2000/svg"
   xmlns:svg="http://www.w3.org/2000/svg"><sodipodi:namedview
     id="namedview1"
     pagecolor="#ffffff"
     bordercolor="#000000"
     borderopacity="0.25"
     inkscape:showpageshadow="2"
     inkscape:pageopacity="0.0"
     inkscape:pagecheckerboard="0"
     inkscape:deskcolor="#d1d1d1"
     inkscape:document-units="mm" /><defs
     id="defs1" /><g
     inkscape:label="Layer 1"
     inkscape:groupmode="layer"
     id="layer1"><path
       style="fill:#000000;stroke-width:1"
       d="m 39.949128,76.975154 v -2.43593 H 62.116019 84.28291 v 2.43593 2.43591 H 62.116019 39.949128 Z m -10.137092,-4.99364 0.149811,-2.07054 4.750049,-0.13939 4.750048,-0.13939 v 2.20998 2.20998 H 34.562086 29.66223 Z m 54.958054,-0.12172 v -2.19232 h 4.81997 4.81998 l -0.07,2.19103 -0.07,2.19104 -4.75005,0.001 -4.75005,0.001 z m -59.923682,-4.87184 v -2.19233 h 2.435923 2.435923 v 2.19233 2.19233 h -2.435923 -2.435923 z m 35.077272,-0.24358 v -2.43593 h -2.62251 -2.622486 l 0.133128,-1.58336 c 0.07328,-0.87084 0.157249,-1.85738 0.186581,-2.192321 0.04014,-0.456741 1.819526,-0.608982 7.117589,-0.608982 5.932808,0 7.071968,0.117109 7.112878,0.730763 0.23744,3.56137 0.34636,3.39891 -2.38514,3.55756 l -2.535417,0.14731 v 2.41046 2.41046 h -2.192321 -2.192339 z m 34.5901,0.24358 v -2.19233 h 2.43593 2.43591 v 2.19233 2.19233 H 96.94971 94.51378 Z M 19.974564,59.680192 v -4.628249 h 2.19233 2.19233 v 4.628249 4.628252 h -2.19233 -2.19233 z M 99.38562,59.436603 v -4.871857 h 2.43593 2.43593 v -7.307767 -7.307767 h 2.43591 2.43593 v 7.307767 7.307767 h -2.43593 -2.43591 v 4.871857 4.871841 h -2.43593 -2.43593 z M 39.949128,57.000674 v -2.435928 h -2.435923 -2.435923 v -4.871838 -4.871839 h 2.19233 2.19233 v 2.43591 2.435929 h 2.679516 2.679514 V 47.01339 44.333872 h -2.435923 -2.435921 v -2.192321 -2.192339 h 4.871844 4.871844 v 2.435929 2.435928 h 2.453564 2.453569 l -0.139389,4.750035 -0.139388,4.750053 -2.314119,0.148411 -2.314127,0.148595 v 2.409229 2.409229 h -4.871844 -4.871844 z m 34.590082,0.0267 v -2.40923 l -2.31412,-0.148595 -2.31413,-0.148411 -0.13938,-4.750053 -0.13939,-4.750034 h 2.45355 2.45357 v 2.43591 2.435928 h 2.70498 2.70496 l -0.1473,-2.557714 -0.14731,-2.557732 -2.55773,-0.147306 -2.55771,-0.147306 v -2.166874 -2.166874 h 4.87185 4.87184 v 2.435929 2.435928 h 2.43593 2.43591 v 4.871839 4.871838 h -2.43591 -2.43593 v 2.435929 2.435928 H 79.41105 74.5392 Z M 15.10272,47.256979 v -7.307767 h 2.19233 2.19233 v 7.307767 7.307767 H 17.29505 15.10272 Z M 10.230874,37.026105 V 34.590177 H 7.55136 4.871844 V 29.474749 24.359303 H 2.435923 0 v -7.064159 -7.064178 h 14.859127 14.859127 v 2.192321 2.192339 H 17.29505 4.871844 v 2.679518 2.679499 H 7.307767 9.74369 v 2.435929 2.435928 h 7.307767 7.307767 v 2.43591 2.435928 H 21.923301 19.48738 v 2.435929 2.43591 h -2.435923 -2.435923 v 2.435928 2.435929 h -2.19233 -2.19233 z m 99.290516,0.121712 -0.14841,-2.314125 -2.55771,-0.147306 -2.55772,-0.147306 v -2.410463 -2.410463 h -2.46263 -2.4626 l 0.14841,-2.314124 0.14841,-2.314125 7.42957,-0.134417 7.42957,-0.134417 V 22.39783 19.974588 h 2.43591 2.43593 V 17.295089 14.615571 H 106.9369 94.51371 v -2.192339 -2.192321 h 14.85912 14.85913 v 7.064178 7.064159 h -2.41888 -2.41888 l -0.13884,4.993642 -0.13883,4.993643 -2.55772,0.147306 -2.55773,0.147306 v 2.410463 2.410463 h -2.16564 -2.16562 z M 59.92368,14.615534 V 4.871839 h -2.679518 -2.679493 v 7.307767 7.307767 H 52.128738 49.692816 V 12.179606 4.871839 H 44.820972 39.949128 V 2.43591 0 H 62.116019 84.28291 v 2.43591 2.435929 h -4.87184 -4.87186 v 7.307767 7.307767 H 72.1033 69.66738 V 12.179606 4.871839 h -2.67952 -2.67952 v 9.743695 9.743677 H 62.116019 59.92368 Z M 29.913746,9.063233 C 29.770141,8.689002 29.736131,7.647639 29.838176,6.749109 L 30.023722,5.115428 34.74283,4.97604 39.461936,4.836651 v 2.453568 2.45355 h -4.643541 c -3.525519,0 -4.706412,-0.163878 -4.904655,-0.680444 z M 84.77009,7.307767 V 4.836559 l 4.75005,0.139388 4.75005,0.139389 v 2.192339 2.192321 l -4.75005,0.139389 -4.75005,0.139388 z"
       id="path1" /></g></svg>
